<svg width="200" height="200" viewBox="0 0 200 200" xmlns="http://www.w3.org/2000/svg">
  <defs>
    <linearGradient id="paraiba-crystal" x1="0%" y1="0%" x2="100%" y2="100%"><stop offset="0%" stop-color="#16CFC0"/><stop offset="50%" stop-color="#08DCE8"/><stop offset="100%" stop-color="#087CFF"/></linearGradient>
    <linearGradient id="paraiba-crystal-deep" x1="0%" y1="0%" x2="100%" y2="100%"><stop offset="0%" stop-color="#087CFF"/><stop offset="100%" stop-color="#073B8F"/></linearGradient>
  </defs>
  <rect width="200" height="200" rx="40" fill="#061426"/>
  <g stroke="#061426" stroke-width="1.5" stroke-linejoin="round">
    <path d="M74,44 L74,156 L98,156 L98,112 L98,44 Z" fill="url(#paraiba-crystal-deep)"/>
    <path d="M98,44 L136,44 C154,44 164,58 164,76 C164,94 154,108 136,108 L98,108 Z" fill="url(#paraiba-crystal)"/>
    <path d="M98,44 L124,62 L98,76 Z" fill="#F5FAFF" opacity="0.35"/>
    <path d="M124,62 L146,60 L136,86 L98,76 Z" fill="#08DCE8" opacity="0.55"/>
    <path d="M136,86 L146,60 L164,76 C164,94 154,108 136,108 Z" opacity="0.85" fill="url(#paraiba-crystal-deep)"/>
    <path d="M74,112 L98,112 L98,156 L74,156 Z" fill="#073B8F" opacity="0.9"/>
  </g>
</svg>
